<?xml version="1.0" encoding="UTF-8" standalone="no"?>
<svg
   xmlns:dc="http://purl.org/dc/elements/1.1/"
   xmlns:cc="http://creativecommons.org/ns#"
   xmlns:rdf="http://www.w3.org/1999/02/22-rdf-syntax-ns#"
   xmlns:svg="http://www.w3.org/2000/svg"
   xmlns="http://www.w3.org/2000/svg"
   xmlns:sodipodi="http://sodipodi.sourceforge.net/DTD/sodipodi-0.dtd"
   xmlns:inkscape="http://www.inkscape.org/namespaces/inkscape"
   id="logo-cargando"
   viewBox="0 0 135.661190 153.010790"
   shape-rendering="geometricPrecision"
   text-rendering="geometricPrecision"
   version="1.1"
   sodipodi:docname="logo.svg"
   inkscape:version="1.0.1 (3bc2e813f5, 2020-09-07)">
  <metadata
     id="metadata25">
    <rdf:RDF>
      <cc:Work
         rdf:about="">
        <dc:format>image/svg+xml</dc:format>
        <dc:type
           rdf:resource="http://purl.org/dc/dcmitype/StillImage" />
        <dc:title></dc:title>
      </cc:Work>
    </rdf:RDF>
  </metadata>
  <defs
     id="defs23" />
  <sodipodi:namedview
     pagecolor="#ffffff"
     bordercolor="#666666"
     borderopacity="1"
     objecttolerance="10"
     gridtolerance="10"
     guidetolerance="10"
     inkscape:pageopacity="0"
     inkscape:pageshadow="2"
     inkscape:window-width="1920"
     inkscape:window-height="1001"
     id="namedview21"
     showgrid="false"
     inkscape:zoom="5.4244541"
     inkscape:cx="67.830597"
     inkscape:cy="76.505394"
     inkscape:window-x="-9"
     inkscape:window-y="-9"
     inkscape:window-maximized="1"
     inkscape:current-layer="logo-cargando" />
  <style
     id="style2"><![CDATA[#logo-cargando-arribaizq {animation: logo-cargando-arribaizq_c_o 3200ms linear infinite normal forwards}@keyframes logo-cargando-arribaizq_c_o { 0% {opacity: 1} 21.875000% {opacity: 0} 40.625000% {opacity: 0} 50% {opacity: 1} 71.875000% {opacity: 0} 90.625000% {opacity: 0} 100% {opacity: 1} }#logo-cargando-arribader {animation: logo-cargando-arribader_c_o 3200ms linear infinite normal forwards}@keyframes logo-cargando-arribader_c_o { 0% {opacity: 0} 3.125000% {opacity: 0} 12.500000% {opacity: 1} 34.375000% {opacity: 0} 53.125000% {opacity: 0} 62.500000% {opacity: 1} 84.375000% {opacity: 0} 100% {opacity: 0} }#logo-cargando-abajoder {animation: logo-cargando-abajoder_c_o 3200ms linear infinite normal forwards}@keyframes logo-cargando-abajoder_c_o { 0% {opacity: 0} 15.625000% {opacity: 0} 25% {opacity: 1} 46.875000% {opacity: 0} 65.625000% {opacity: 0} 75% {opacity: 1} 96.875000% {opacity: 0} 100% {opacity: 0} }#logo-cargando-abajoizq {animation: logo-cargando-abajoizq_c_o 3200ms linear infinite normal forwards}@keyframes logo-cargando-abajoizq_c_o { 0% {opacity: 0.430000} 9.375000% {opacity: 0} 28.125000% {opacity: 0} 37.500000% {opacity: 1} 59.375000% {opacity: 0} 78.125000% {opacity: 0} 87.500000% {opacity: 1} 100% {opacity: 0.428571} }]]></style>
  <g
     id="logo-cargando-layer1"
     transform="matrix(1 0 0 1 -27.98150000000000 -68.74490000000000)">
    <g
       id="logo-cargando-hexagono"
       transform="matrix(1 0 0 1 917.88199999999995 -136.30000000000001)"
       opacity="0.996">
      <path
         id="logo-cargando-path1551"
         d="M-822.144530,205.044920C-827.740060,205.235060,-831.966260,209.572040,-836.817500,211.842310C-853.069030,221.324980,-869.507740,230.518130,-885.643830,240.179410C-889.778140,243.205900,-890.145070,248.656660,-889.802730,253.331520C-889.716530,274.190800,-889.974170,295.067390,-889.675540,315.916000C-889.121430,321.009670,-884.584160,324.052430,-880.364540,326.093510C-862.257110,336.448580,-844.306480,347.109820,-826.102110,357.275660C-821.413720,359.342940,-816.509640,356.935010,-812.632120,354.301020C-794.610790,343.796820,-776.402740,333.581440,-758.496790,322.898710C-754.362480,319.872220,-753.995550,314.421470,-754.337890,309.746610C-754.423990,288.887330,-754.166460,268.010740,-754.465080,247.162130C-755.019190,242.068450,-759.556460,239.025690,-763.776080,236.984610C-781.883600,226.629720,-799.833970,215.967940,-818.038640,205.802740C-819.342940,205.293320,-820.744320,205.034670,-822.144530,205.044920ZM-822.070330,228.939450C-806.886090,237.705730,-791.701840,246.472000,-776.517600,255.238280C-776.517600,272.772130,-776.517600,290.305990,-776.517600,307.839840C-791.701840,316.606770,-806.886090,325.373690,-822.070330,334.140620C-837.255230,325.373690,-852.440120,316.606770,-867.625020,307.839840C-867.625020,290.305990,-867.625020,272.772130,-867.625020,255.238280C-852.440120,246.472000,-837.255230,237.705730,-822.070330,228.939450Z"
         paint-order="markers stroke fill"
         fill="rgb(25,123,189)"
         stroke="none"
         stroke-width="22.179100"
         stroke-linecap="square"
         stroke-linejoin="round" />
      <path
         id="logo-cargando-path1553"
         d="M-765.427850,248.836500C-765.427850,270.638410,-765.427850,292.440320,-765.427850,314.242230C-784.308860,325.143180,-803.189870,336.044140,-822.070880,346.945090C-840.951890,336.044140,-859.832890,325.143180,-878.713900,314.242230C-878.713900,292.440320,-878.713900,270.638410,-878.713900,248.836500C-859.832890,237.935540,-840.951890,227.034590,-822.070880,216.133630C-803.189870,227.034590,-784.308860,237.935540,-765.427850,248.836500Z"
         paint-order="markers stroke fill"
         fill="rgb(25,123,189)"
         stroke="none"
         stroke-width="22.179100"
         stroke-linecap="square"
         stroke-linejoin="round" />
    </g>
    <path
       id="logo-cargando-arribaizq"
       d="M60.353370,145.237310L86.183140,152.837360L95.813760,109.781550Z"
       fill="rgb(255,255,255)"
       stroke="none"
       stroke-width="2.900000" />
    <path
       id="logo-cargando-arribader"
       d="M86.183140,152.837360L131.269530,145.241940L95.813760,109.781550Z"
       transform="matrix(1 0 0 1 0.00029000000001 0)"
       opacity="0"
       fill="rgb(255,255,255)"
       fill-opacity="0.996078"
       stroke="none"
       stroke-width="2.900000" />
    <path
       id="logo-cargando-abajoder"
       d="M86.183140,152.837360L95.809140,180.697720L131.269530,145.241940Z"
       opacity="0"
       fill="rgb(255,255,255)"
       fill-opacity="0.996078"
       stroke="none"
       stroke-width="2.900000" />
    <path
       id="logo-cargando-abajoizq"
       d="M60.353370,145.237330L95.809140,180.697720L86.183140,152.837360Z"
       opacity="0.43"
       fill="rgb(254,254,255)"
       stroke="none"
       stroke-width="2.900000" />
    <g
       id="logo-cargando-estrucutra-gruesa"
       transform="matrix(1 0 0 1 296.50700000000001 -122.96899999999999)">
      <path
         id="logo-cargando-path1168"
         d="M-200.697570,303.666850L-236.153340,268.206450L-200.692950,232.750670L-165.237180,268.211060Z"
         fill="none"
         stroke="rgb(255,255,255)"
         stroke-width="2.865000" />
      <path
         id="logo-cargando-horizontal"
         d="M-236.153340,268.206440L-210.323570,275.806480L-165.237180,268.211060"
         fill="none"
         stroke="rgb(255,255,255)"
         stroke-width="2.865000" />
      <path
         id="logo-cargando-path1170"
         d="M-200.692950,232.750670L-210.323570,275.806480L-200.697570,303.666840"
         fill="none"
         stroke="rgb(255,255,255)"
         stroke-width="2.865000" />
    </g>
    <g
       id="logo-cargando-estructura-fina"
       transform="matrix(1 0 0 1 296.50700000000001 -122.96899999999999)">
      <path
         id="logo-cargando-rombo"
         d="M-200.697570,303.666850L-236.153340,268.206450L-200.692950,232.750670L-165.237180,268.211060Z"
         fill="none"
         stroke="rgb(25,123,189)"
         stroke-width="1.100000" />
      <path
         id="logo-cargando-horizonttal"
         d="M-236.153340,268.206440L-210.323570,275.806480L-165.237180,268.211060"
         fill="none"
         stroke="rgb(25,123,189)"
         stroke-width="1.100000" />
      <path
         id="logo-cargando-vertical"
         d="M-200.692950,232.750670L-210.323570,275.806480L-200.697570,303.666840"
         fill="none"
         stroke="rgb(25,123,189)"
         stroke-width="1.100000" />
    </g>
  </g>
</svg>
